<svg width="408.601" height="76.401" viewBox="0 0 408.601 76.401" xmlns="http://www.w3.org/2000/svg">
    <g id="svgGroup" stroke-linecap="round" fill-rule="evenodd" font-size="9pt" stroke="#000"
        stroke-width="0" fill="#75a99c" style="stroke:#000;stroke-width:0;fill:#75a99c">
        <path
            d="M 131.701 53.201 L 122.701 53.201 L 122.701 1.201 L 131.401 1.201 L 131.401 9.901 Q 134.201 5.701 138.501 2.851 A 17.205 17.205 0 0 1 147.703 0.009 A 20.858 20.858 0 0 1 148.301 0.001 A 20.994 20.994 0 0 1 152.718 0.44 Q 155.704 1.083 157.986 2.664 A 13.128 13.128 0 0 1 158.451 3.001 A 15.751 15.751 0 0 1 163.898 10.69 A 19.154 19.154 0 0 1 164.001 11.001 Q 167.101 6.401 171.351 3.201 A 15.669 15.669 0 0 1 178.141 0.317 A 21.446 21.446 0 0 1 181.901 0.001 A 21.437 21.437 0 0 1 186.788 0.523 Q 190.374 1.363 192.863 3.552 A 12.994 12.994 0 0 1 194.551 5.351 A 18.992 18.992 0 0 1 197.962 12.623 Q 198.701 15.673 198.701 19.301 L 198.701 53.201 L 189.701 53.201 L 189.701 20.001 A 19.042 19.042 0 0 0 189.364 16.312 Q 188.928 14.106 187.929 12.362 A 10.982 10.982 0 0 0 187.201 11.251 A 7.974 7.974 0 0 0 181.387 7.955 A 10.678 10.678 0 0 0 180.301 7.901 A 11.926 11.926 0 0 0 173.541 10.028 A 15.996 15.996 0 0 0 171.951 11.251 Q 168.101 14.601 165.201 19.101 L 165.201 53.201 L 156.201 53.201 L 156.201 20.001 A 19.042 19.042 0 0 0 155.864 16.312 Q 155.428 14.106 154.429 12.362 A 10.982 10.982 0 0 0 153.701 11.251 A 7.974 7.974 0 0 0 147.887 7.955 A 10.678 10.678 0 0 0 146.801 7.901 A 12.02 12.02 0 0 0 140.482 9.729 A 16.244 16.244 0 0 0 138.501 11.151 Q 134.601 14.401 131.701 18.801 L 131.701 53.201 Z M 223.201 53.201 L 214.201 53.201 L 214.201 1.201 L 222.901 1.201 L 222.901 9.901 Q 225.701 5.701 230.001 2.851 A 17.205 17.205 0 0 1 239.203 0.009 A 20.858 20.858 0 0 1 239.801 0.001 A 20.994 20.994 0 0 1 244.218 0.44 Q 247.204 1.083 249.486 2.664 A 13.128 13.128 0 0 1 249.951 3.001 A 15.751 15.751 0 0 1 255.398 10.69 A 19.154 19.154 0 0 1 255.501 11.001 Q 258.601 6.401 262.851 3.201 A 15.669 15.669 0 0 1 269.641 0.317 A 21.446 21.446 0 0 1 273.401 0.001 A 21.437 21.437 0 0 1 278.288 0.523 Q 281.874 1.363 284.363 3.552 A 12.994 12.994 0 0 1 286.051 5.351 A 18.992 18.992 0 0 1 289.462 12.623 Q 290.201 15.673 290.201 19.301 L 290.201 53.201 L 281.201 53.201 L 281.201 20.001 A 19.042 19.042 0 0 0 280.864 16.312 Q 280.428 14.106 279.429 12.362 A 10.982 10.982 0 0 0 278.701 11.251 A 7.974 7.974 0 0 0 272.887 7.955 A 10.678 10.678 0 0 0 271.801 7.901 A 11.926 11.926 0 0 0 265.041 10.028 A 15.996 15.996 0 0 0 263.451 11.251 Q 259.601 14.601 256.701 19.101 L 256.701 53.201 L 247.701 53.201 L 247.701 20.001 A 19.042 19.042 0 0 0 247.364 16.312 Q 246.928 14.106 245.929 12.362 A 10.982 10.982 0 0 0 245.201 11.251 A 7.974 7.974 0 0 0 239.387 7.955 A 10.678 10.678 0 0 0 238.301 7.901 A 12.02 12.02 0 0 0 231.982 9.729 A 16.244 16.244 0 0 0 230.001 11.151 Q 226.101 14.401 223.201 18.801 L 223.201 53.201 Z M 66.601 72.001 L 69.901 64.201 A 20.562 20.562 0 0 0 73.717 66.574 A 24.737 24.737 0 0 0 75.501 67.351 Q 78.26 68.429 82.06 68.577 A 31.788 31.788 0 0 0 83.301 68.601 A 21.701 21.701 0 0 0 87.821 68.158 Q 90.722 67.54 92.922 66.06 A 12.576 12.576 0 0 0 94.451 64.851 A 11.352 11.352 0 0 0 97.358 60.357 Q 98.501 57.257 98.501 52.901 L 98.501 46.501 Q 96.501 48.901 92.751 51.051 Q 89.001 53.201 83.801 53.201 Q 77.901 53.201 72.601 50.151 A 22.236 22.236 0 0 1 65.308 43.313 A 27.437 27.437 0 0 1 64.001 41.201 A 25.181 25.181 0 0 1 61.288 33.577 A 35.033 35.033 0 0 1 60.701 27.001 A 32.06 32.06 0 0 1 61.618 19.193 A 26.682 26.682 0 0 1 63.951 13.101 A 25.706 25.706 0 0 1 70.014 5.478 A 24.448 24.448 0 0 1 72.701 3.501 Q 78.201 0.001 84.801 0.001 A 22.366 22.366 0 0 1 89.621 0.502 A 18.715 18.715 0 0 1 92.801 1.501 A 25.705 25.705 0 0 1 96.629 3.469 A 20.998 20.998 0 0 1 99.001 5.201 L 99.001 1.201 L 107.201 1.201 L 107.201 52.001 Q 107.201 60.601 104.201 66.001 Q 101.201 71.401 95.851 73.901 A 25.811 25.811 0 0 1 89.247 75.922 A 35.243 35.243 0 0 1 83.301 76.401 Q 78.701 76.401 74.351 75.301 A 27.232 27.232 0 0 1 69.05 73.383 A 23.518 23.518 0 0 1 66.601 72.001 Z M 314.701 53.201 L 305.701 53.201 L 305.701 1.201 L 314.401 1.201 L 314.401 9.901 Q 317.201 5.701 321.551 2.851 A 17.316 17.316 0 0 1 328.656 0.226 A 22.629 22.629 0 0 1 331.901 0.001 A 23.225 23.225 0 0 1 336.966 0.518 Q 342.06 1.657 345.051 5.301 Q 349.175 10.326 349.389 18.409 A 33.764 33.764 0 0 1 349.401 19.301 L 349.401 53.201 L 340.401 53.201 L 340.401 20.301 A 19.265 19.265 0 0 0 340.058 16.56 Q 339.62 14.345 338.62 12.597 A 10.966 10.966 0 0 0 337.751 11.301 A 8.579 8.579 0 0 0 331.474 7.947 A 12.061 12.061 0 0 0 330.401 7.901 A 13.122 13.122 0 0 0 323.551 9.865 A 17.353 17.353 0 0 0 321.701 11.151 Q 317.601 14.401 314.701 18.801 L 314.701 53.201 Z M 373.901 53.201 L 364.901 53.201 L 364.901 1.201 L 373.601 1.201 L 373.601 9.901 Q 376.401 5.701 380.751 2.851 A 17.316 17.316 0 0 1 387.856 0.226 A 22.629 22.629 0 0 1 391.101 0.001 A 23.225 23.225 0 0 1 396.166 0.518 Q 401.26 1.657 404.251 5.301 Q 408.375 10.326 408.589 18.409 A 33.764 33.764 0 0 1 408.601 19.301 L 408.601 53.201 L 399.601 53.201 L 399.601 20.301 A 19.265 19.265 0 0 0 399.258 16.56 Q 398.82 14.345 397.82 12.597 A 10.966 10.966 0 0 0 396.951 11.301 A 8.579 8.579 0 0 0 390.674 7.947 A 12.061 12.061 0 0 0 389.601 7.901 A 13.122 13.122 0 0 0 382.751 9.865 A 17.353 17.353 0 0 0 380.901 11.151 Q 376.801 14.401 373.901 18.801 L 373.901 53.201 Z M 39.101 5.401 L 39.101 1.201 L 47.301 1.201 L 47.301 40.601 A 12.15 12.15 0 0 0 47.402 42.236 Q 47.734 44.67 49.151 45.551 Q 51.001 46.701 53.201 46.701 L 51.301 53.701 A 17.722 17.722 0 0 1 47.036 53.228 Q 41.399 51.829 39.804 46.281 A 13.59 13.59 0 0 1 39.701 45.901 A 21.307 21.307 0 0 1 36.591 49.327 A 28.498 28.498 0 0 1 33.451 51.751 Q 29.501 54.401 23.401 54.401 Q 16.901 54.401 11.601 51.101 A 22.947 22.947 0 0 1 4.187 43.574 A 27.923 27.923 0 0 1 3.151 41.751 A 27.228 27.228 0 0 1 0.52 33.808 A 36.644 36.644 0 0 1 0.001 27.501 A 33.142 33.142 0 0 1 0.997 19.232 A 27.968 27.968 0 0 1 3.151 13.501 Q 6.301 7.301 11.851 3.651 A 22.297 22.297 0 0 1 23.045 0.044 A 27.388 27.388 0 0 1 24.601 0.001 A 22.584 22.584 0 0 1 29.394 0.491 A 18.703 18.703 0 0 1 32.751 1.551 A 26.002 26.002 0 0 1 37.037 3.844 A 22.103 22.103 0 0 1 39.101 5.401 Z M 38.301 39.901 L 38.301 12.001 Q 35.601 10.101 32.351 8.951 Q 29.101 7.801 25.501 7.801 A 15.924 15.924 0 0 0 20.529 8.555 A 14.024 14.024 0 0 0 17.051 10.251 A 16.301 16.301 0 0 0 12.031 15.675 A 19.962 19.962 0 0 0 11.301 17.051 A 20.663 20.663 0 0 0 9.547 22.728 A 27.678 27.678 0 0 0 9.201 27.201 Q 9.201 32.801 11.301 37.151 A 17.602 17.602 0 0 0 14.406 41.697 A 15.697 15.697 0 0 0 17.101 43.951 Q 20.801 46.401 25.401 46.401 Q 29.201 46.401 32.601 44.551 Q 36.001 42.701 38.301 39.901 Z M 98.201 39.201 L 98.201 12.001 Q 96.035 10.426 92.997 9.141 A 36.018 36.018 0 0 0 92.901 9.101 A 16.249 16.249 0 0 0 89.097 8.05 A 22.135 22.135 0 0 0 85.701 7.801 Q 81.601 7.801 78.001 10.001 Q 74.401 12.201 72.151 16.351 Q 69.901 20.501 69.901 26.501 A 24.32 24.32 0 0 0 70.379 31.437 A 18.311 18.311 0 0 0 72.151 36.401 A 18.576 18.576 0 0 0 75.062 40.476 A 15.802 15.802 0 0 0 78.001 42.901 Q 81.601 45.201 85.801 45.201 A 15.276 15.276 0 0 0 90.379 44.532 A 13.606 13.606 0 0 0 93.001 43.401 A 20.855 20.855 0 0 0 95.982 41.385 A 16.309 16.309 0 0 0 98.201 39.201 Z"
            vector-effect="non-scaling-stroke" />
    </g>
</svg>